<svg width="1280" height="720" xmlns="http://www.w3.org/2000/svg" xmlns:xlink="http://www.w3.org/1999/xlink" overflow="hidden"><defs><clipPath id="clip0"><rect x="0" y="0" width="1280" height="720"/></clipPath></defs><g clip-path="url(#clip0)"><rect x="0" y="0" width="1280" height="720" fill="#FFFFFF"/><path d="M266.5 244.834C266.5 230.29 278.29 218.5 292.834 218.5L443.166 218.5C457.71 218.5 469.5 230.29 469.5 244.834L469.5 350.166C469.5 364.71 457.71 376.5 443.166 376.5L292.834 376.5C278.29 376.5 266.5 364.71 266.5 350.166Z" stroke="#000000" stroke-width="1.33333" stroke-miterlimit="8" fill="none" fill-rule="evenodd"/><path d="M666.5 240.667C666.5 225.111 679.111 212.5 694.667 212.5L841.333 212.5C856.889 212.5 869.5 225.111 869.5 240.667L869.5 353.333C869.5 368.889 856.889 381.5 841.333 381.5L694.667 381.5C679.111 381.5 666.5 368.889 666.5 353.333Z" stroke="#000000" stroke-width="1.33333" stroke-miterlimit="8" fill="none" fill-rule="evenodd"/><path d="M0 0 196.349 0.575748" stroke="#000000" stroke-width="0.666667" stroke-miterlimit="8" fill="none" fill-rule="evenodd" transform="matrix(1 0 0 -1 469.5 298.076)"/><path d="M0 0 203.556 0.000104987" stroke="#000000" stroke-width="1.33333" stroke-miterlimit="8" fill="none" fill-rule="evenodd" transform="matrix(1 0 0 -1 266.5 261.5)"/><path d="M0 0 203.556 0.000104987" stroke="#000000" stroke-width="1.33333" stroke-miterlimit="8" fill="none" fill-rule="evenodd" transform="matrix(1 0 0 -1 666.5 246.5)"/><text font-family="Calibri,Calibri_MSFontService,sans-serif" font-weight="400" font-size="24" transform="translate(334.139 249)">Sensor<tspan font-size="24" x="363.738" y="-15">Measurement</tspan></text><path d="M0 0 203.556 0.000104987" stroke="#000000" stroke-width="1.33333" stroke-miterlimit="8" fill="none" fill-rule="evenodd" transform="matrix(1 0 0 -1 264.5 297.5)"/><path d="M368.5 261.5 368.5 376.165" stroke="#000000" stroke-width="1.33333" stroke-miterlimit="8" fill="none" fill-rule="evenodd"/><text font-family="Calibri,Calibri_MSFontService,sans-serif" font-weight="400" font-size="13" transform="translate(292 282)">sensorID<tspan font-size="13" x="93.9879" y="0">sensorName</tspan></text><path d="M0 0 203.556 0.000104987" stroke="#000000" stroke-width="0.666667" stroke-miterlimit="8" fill="none" fill-rule="evenodd" transform="matrix(1 0 0 -1 264.5 316.5)"/><path d="M0 0 203.556 0.000104987" stroke="#000000" stroke-width="0.666667" stroke-miterlimit="8" fill="none" fill-rule="evenodd" transform="matrix(1 0 0 -1 264.5 336.5)"/><path d="M0 0 203.556 0.000104987" stroke="#000000" stroke-width="0.666667" stroke-miterlimit="8" fill="none" fill-rule="evenodd" transform="matrix(1 0 0 -1 264.5 356.5)"/><text font-family="Calibri,Calibri_MSFontService,sans-serif" font-weight="400" font-size="15" transform="translate(308.407 313)">1<tspan font-size="15" x="0" y="19">2</tspan><tspan font-size="15" x="0" y="39">3</tspan><tspan font-size="11" x="72.4174" y="-2">Hum_BO_10_20</tspan><tspan font-size="11" x="72.4174" y="19">Hum_BO_10_30</tspan><tspan font-size="11" x="72.4174" y="37">ARPAE_Temp_FC</tspan></text><path d="M715.5 246.5 715.5 382.209" stroke="#000000" stroke-width="1.33333" stroke-miterlimit="8" fill="none" fill-rule="evenodd"/><path d="M759.5 246.5 759.5 382.209" stroke="#000000" stroke-width="1.33333" stroke-miterlimit="8" fill="none" fill-rule="evenodd"/><path d="M841.5 246.5 841.5 382.209" stroke="#000000" stroke-width="1.33333" stroke-miterlimit="8" fill="none" fill-rule="evenodd"/><path d="M0 0 203.556 0.000104987" stroke="#000000" stroke-width="0.666667" stroke-miterlimit="8" fill="none" fill-rule="evenodd" transform="matrix(-1 0 0 1 870.056 267.5)"/><text font-family="Calibri,Calibri_MSFontService,sans-serif" font-weight="700" font-size="7" transform="translate(680.391 258)">time<tspan font-size="7" x="45.6636" y="0">property</tspan><tspan font-size="7" x="132.97" y="1">location</tspan><tspan font-size="7" x="167.779" y="1">value</tspan></text><path d="M0 0 203.556 0.000104987" stroke="#000000" stroke-width="0.666667" stroke-miterlimit="8" fill="none" fill-rule="evenodd" transform="matrix(-1 0 0 1 870.056 283.5)"/><path d="M0 0 203.556 0.000104987" stroke="#000000" stroke-width="0.666667" stroke-miterlimit="8" fill="none" fill-rule="evenodd" transform="matrix(-1 0 0 1 868.056 300.5)"/><path d="M0 0 203.556 0.000104987" stroke="#000000" stroke-width="0.666667" stroke-miterlimit="8" fill="none" fill-rule="evenodd" transform="matrix(-1 0 0 1 868.056 315.5)"/><path d="M0 0 203.556 0.000104987" stroke="#000000" stroke-width="0.666667" stroke-miterlimit="8" fill="none" fill-rule="evenodd" transform="matrix(-1 0 0 1 870.056 331.5)"/><path d="M0 0 203.556 0.000104987" stroke="#000000" stroke-width="0.666667" stroke-miterlimit="8" fill="none" fill-rule="evenodd" transform="matrix(-1 0 0 1 870.056 346.5)"/><text font-family="Lato,Lato_MSFontService,sans-serif" font-weight="400" font-size="7" transform="translate(671.404 278)">1759402502<tspan font-size="7" x="0.974365" y="15">1759402602</tspan><tspan font-size="7" x="0.111084" y="32">1759402602</tspan><tspan font-size="7" x="0" y="47">1759402652</tspan><tspan font-size="7" x="0.974365" y="62">1759402802</tspan><tspan font-family="Calibri,Calibri_MSFontService,sans-serif" font-size="27" x="8.987" y="87">…</tspan><tspan font-family="Calibri,Calibri_MSFontService,sans-serif" font-size="27" x="57.1675" y="86">…</tspan><tspan font-family="Calibri,Calibri_MSFontService,sans-serif" font-size="27" x="142.406" y="86">…</tspan><tspan font-family="Calibri,Calibri_MSFontService,sans-serif" font-size="27" x="173.289" y="86">…</tspan></text><path d="M807.5 246.5 807.5 382.209" stroke="#000000" stroke-width="1.33333" stroke-miterlimit="8" fill="none" fill-rule="evenodd"/><text font-family="Calibri,Calibri_MSFontService,sans-serif" font-weight="700" font-size="7" transform="translate(772.041 258)">sensorId<tspan font-family="Lato,Lato_MSFontService,sans-serif" font-weight="400" font-size="7" x="8.02972" y="21">1</tspan><tspan font-family="Lato,Lato_MSFontService,sans-serif" font-weight="400" font-size="7" x="8.17682" y="36">1</tspan><tspan font-family="Lato,Lato_MSFontService,sans-serif" font-weight="400" font-size="7" x="8.32391" y="51">2</tspan><tspan font-family="Lato,Lato_MSFontService,sans-serif" font-weight="400" font-size="7" x="7.953" y="67">3</tspan><tspan font-family="Lato,Lato_MSFontService,sans-serif" font-weight="400" font-size="7" x="7.18164" y="83">3</tspan><tspan font-family="Lato,Lato_MSFontService,sans-serif" font-weight="400" font-size="7" x="-50.0032" y="19">Humidity</tspan><tspan font-family="Lato,Lato_MSFontService,sans-serif" font-weight="400" font-size="7" x="-50.7427" y="36">Humidity</tspan><tspan font-family="Lato,Lato_MSFontService,sans-serif" font-weight="400" font-size="7" x="-53.1285" y="52">SoilMoisture</tspan><tspan font-family="Lato,Lato_MSFontService,sans-serif" font-weight="400" font-size="7" x="-53.338" y="68">Temperature</tspan><tspan font-family="Lato,Lato_MSFontService,sans-serif" font-weight="400" font-size="7" x="-53.5601" y="82">Temperature</tspan><tspan font-family="Lato,Lato_MSFontService,sans-serif" font-weight="400" font-size="5" x="38.3751" y="19">(47.1, 12.3)</tspan><tspan font-family="Lato,Lato_MSFontService,sans-serif" font-weight="400" font-size="5" x="38.6802" y="35">(47.1, 12.3)</tspan><tspan font-family="Lato,Lato_MSFontService,sans-serif" font-weight="400" font-size="5" x="38.8273" y="51">(42.1, 32.3)</tspan><tspan font-family="Lato,Lato_MSFontService,sans-serif" font-weight="400" font-size="5" x="38.3751" y="67">(47.2, 12.3)</tspan><tspan font-family="Lato,Lato_MSFontService,sans-serif" font-weight="400" font-size="5" x="38.0141" y="83">(47.1, 12.3)</tspan><tspan font-family="Lato,Lato_MSFontService,sans-serif" font-weight="400" font-size="7" x="79.6797" y="20">44</tspan><tspan font-family="Lato,Lato_MSFontService,sans-serif" font-weight="400" font-size="7" x="79.538" y="36">47</tspan><tspan font-family="Lato,Lato_MSFontService,sans-serif" font-weight="400" font-size="7" x="78.9803" y="52">35</tspan><tspan font-family="Lato,Lato_MSFontService,sans-serif" font-weight="400" font-size="7" x="77.1859" y="68">18.3</tspan><tspan font-family="Lato,Lato_MSFontService,sans-serif" font-weight="400" font-size="7" x="77.1859" y="83">19.2</tspan><tspan font-weight="400" font-size="27" x="1.74396" y="106">…</tspan><tspan font-weight="400" font-size="27" x="-364.935" y="111">…</tspan><tspan font-weight="400" font-size="27" x="-468.71" y="110">…</tspan></text></g></svg>