<svg width="2113" height="646" xmlns="http://www.w3.org/2000/svg" xmlns:xlink="http://www.w3.org/1999/xlink" overflow="hidden"><defs><clipPath id="clip0"><rect x="909" y="703" width="2113" height="646"/></clipPath></defs><g clip-path="url(#clip0)" transform="translate(-909 -703)"><path d="M914.5 841.668C914.5 791.87 954.87 751.5 1004.67 751.5L1523.33 751.5C1573.13 751.5 1613.5 791.87 1613.5 841.668L1613.5 1202.33C1613.5 1252.13 1573.13 1292.5 1523.33 1292.5L1004.67 1292.5C954.87 1292.5 914.5 1252.13 914.5 1202.33Z" stroke="#000000" stroke-width="4.58333" stroke-miterlimit="8" fill="none" fill-rule="evenodd"/><path d="M2288.5 826.835C2288.5 773.631 2331.63 730.5 2384.83 730.5L2892.17 730.5C2945.37 730.5 2988.5 773.631 2988.5 826.835L2988.5 1212.17C2988.5 1265.37 2945.37 1308.5 2892.17 1308.5L2384.83 1308.5C2331.63 1308.5 2288.5 1265.37 2288.5 1212.17Z" stroke="#000000" stroke-width="4.58333" stroke-miterlimit="8" fill="none" fill-rule="evenodd"/><path d="M0 0 674.95 1.97913" stroke="#000000" stroke-width="2.29167" stroke-miterlimit="8" fill="none" fill-rule="evenodd" transform="matrix(1 0 0 -1 1613 1020.98)"/><path d="M0 0 699.722 0.000360892" stroke="#000000" stroke-width="4.58333" stroke-miterlimit="8" fill="none" fill-rule="evenodd" transform="matrix(1 0 0 -1 914.5 896.5)"/><path d="M0 0 699.722 0.000360892" stroke="#000000" stroke-width="4.58333" stroke-miterlimit="8" fill="none" fill-rule="evenodd" transform="matrix(1 0 0 -1 2288.5 845.5)"/><text font-family="Calibri,Calibri_MSFontService,sans-serif" font-weight="400" font-size="83" transform="matrix(1 0 0 1 1148.6 856)">Sensor<tspan font-size="83" x="1250.35" y="-51">Measurement</tspan></text><path d="M0 0 699.722 0.000360892" stroke="#000000" stroke-width="4.58333" stroke-miterlimit="8" fill="none" fill-rule="evenodd" transform="matrix(1 0 0 -1 909.5 1020.5)"/><path d="M1263.5 898.5 1263.5 1292.66" stroke="#000000" stroke-width="4.58333" stroke-miterlimit="8" fill="none" fill-rule="evenodd"/><text font-family="Calibri,Calibri_MSFontService,sans-serif" font-weight="400" font-size="46" transform="matrix(1 0 0 1 1003.75 972)">sensorID<tspan font-size="46" x="323.083" y="0">sensorName</tspan></text><path d="M0 0 699.722 0.000360892" stroke="#000000" stroke-width="2.29167" stroke-miterlimit="8" fill="none" fill-rule="evenodd" transform="matrix(1 0 0 -1 909 1088)"/><path d="M0 0 699.722 0.000360892" stroke="#000000" stroke-width="2.29167" stroke-miterlimit="8" fill="none" fill-rule="evenodd" transform="matrix(1 0 0 -1 909 1156)"/><path d="M0 0 699.722 0.000360892" stroke="#000000" stroke-width="2.29167" stroke-miterlimit="8" fill="none" fill-rule="evenodd" transform="matrix(1 0 0 -1 909 1224)"/><text font-family="Calibri,Calibri_MSFontService,sans-serif" font-weight="400" font-size="50" transform="matrix(1 0 0 1 1060.15 1074)">1<tspan font-size="50" x="0" y="66">2</tspan><tspan font-size="50" x="0" y="133">3</tspan><tspan font-size="37" x="248.935" y="-4">Hum_BO_10_20</tspan><tspan font-size="37" x="248.935" y="67">Hum_BO_10_30</tspan><tspan font-size="37" x="248.935" y="129">ARPAE_Temp_FC</tspan></text><path d="M2459.5 845.5 2459.5 1312" stroke="#000000" stroke-width="4.58333" stroke-miterlimit="8" fill="none" fill-rule="evenodd"/><path d="M2609.5 845.5 2609.5 1312" stroke="#000000" stroke-width="4.58333" stroke-miterlimit="8" fill="none" fill-rule="evenodd"/><path d="M2891.5 845.5 2891.5 1312" stroke="#000000" stroke-width="4.58333" stroke-miterlimit="8" fill="none" fill-rule="evenodd"/><path d="M0 0 699.722 0.000360892" stroke="#000000" stroke-width="2.29167" stroke-miterlimit="8" fill="none" fill-rule="evenodd" transform="matrix(-1 0 0 1 2987.72 919)"/><text font-family="Calibri,Calibri_MSFontService,sans-serif" font-weight="700" font-size="23" transform="matrix(1 0 0 1 2338.84 888)">time<tspan font-size="23" x="156.969" y="1">property</tspan><tspan font-size="23" x="457.086" y="1">location</tspan><tspan font-size="23" x="576.742" y="3">value</tspan></text><path d="M0 0 699.722 0.000360892" stroke="#000000" stroke-width="2.29167" stroke-miterlimit="8" fill="none" fill-rule="evenodd" transform="matrix(-1 0 0 1 2987.72 974)"/><path d="M0 0 699.722 0.000360892" stroke="#000000" stroke-width="2.29167" stroke-miterlimit="8" fill="none" fill-rule="evenodd" transform="matrix(-1 0 0 1 2983.72 1030)"/><path d="M0 0 699.722 0.000360892" stroke="#000000" stroke-width="2.29167" stroke-miterlimit="8" fill="none" fill-rule="evenodd" transform="matrix(-1 0 0 1 2983.72 1084)"/><path d="M0 0 699.722 0.000360892" stroke="#000000" stroke-width="2.29167" stroke-miterlimit="8" fill="none" fill-rule="evenodd" transform="matrix(-1 0 0 1 2987.72 1139)"/><path d="M0 0 699.722 0.000360892" stroke="#000000" stroke-width="2.29167" stroke-miterlimit="8" fill="none" fill-rule="evenodd" transform="matrix(-1 0 0 1 2987.72 1189)"/><text font-family="Lato,Lato_MSFontService,sans-serif" font-weight="400" font-size="23" transform="matrix(1 0 0 1 2307.95 957)">1759402502<tspan font-size="23" x="3.34937" y="53">1759402602</tspan><tspan font-size="23" x="0.381836" y="109">1759402602</tspan><tspan font-size="23" x="0" y="161">1759402652</tspan><tspan font-size="23" x="3.34937" y="214">1759402802</tspan><tspan font-family="Calibri,Calibri_MSFontService,sans-serif" font-size="92" x="30.8926" y="298">…</tspan><tspan font-family="Calibri,Calibri_MSFontService,sans-serif" font-size="92" x="196.513" y="295">…</tspan><tspan font-family="Calibri,Calibri_MSFontService,sans-serif" font-size="92" x="489.52" y="295">…</tspan><tspan font-family="Calibri,Calibri_MSFontService,sans-serif" font-size="92" x="595.682" y="295">…</tspan></text><path d="M2774.5 846.5 2774.5 1313" stroke="#000000" stroke-width="4.58333" stroke-miterlimit="8" fill="none" fill-rule="evenodd"/><text font-family="Calibri,Calibri_MSFontService,sans-serif" font-weight="700" font-size="23" transform="matrix(1 0 0 1 2653.89 888)">sensorId<tspan font-family="Lato,Lato_MSFontService,sans-serif" font-weight="400" font-size="23" x="27.6021" y="71">1</tspan><tspan font-family="Lato,Lato_MSFontService,sans-serif" font-weight="400" font-size="23" x="28.1077" y="124">1</tspan><tspan font-family="Lato,Lato_MSFontService,sans-serif" font-weight="400" font-size="23" x="28.6133" y="176">2</tspan><tspan font-family="Lato,Lato_MSFontService,sans-serif" font-weight="400" font-size="23" x="27.3384" y="230">3</tspan><tspan font-family="Lato,Lato_MSFontService,sans-serif" font-weight="400" font-size="23" x="24.6868" y="286">3</tspan><tspan font-family="Lato,Lato_MSFontService,sans-serif" font-weight="400" font-size="23" x="-171.886" y="66">Humidity</tspan><tspan font-family="Lato,Lato_MSFontService,sans-serif" font-weight="400" font-size="23" x="-174.428" y="124">Humidity</tspan><tspan font-family="Lato,Lato_MSFontService,sans-serif" font-weight="400" font-size="23" x="-182.629" y="180">SoilMoisture</tspan><tspan font-family="Lato,Lato_MSFontService,sans-serif" font-weight="400" font-size="23" x="-183.349" y="233">Temperature</tspan><tspan font-family="Lato,Lato_MSFontService,sans-serif" font-weight="400" font-size="23" x="-184.113" y="283">Temperature</tspan><tspan font-family="Lato,Lato_MSFontService,sans-serif" font-weight="400" font-size="18" x="131.915" y="64">(47.1, 12.3)</tspan><tspan font-family="Lato,Lato_MSFontService,sans-serif" font-weight="400" font-size="18" x="132.963" y="119">(47.1, 12.3)</tspan><tspan font-family="Lato,Lato_MSFontService,sans-serif" font-weight="400" font-size="18" x="133.469" y="174">(42.1, 32.3)</tspan><tspan font-family="Lato,Lato_MSFontService,sans-serif" font-weight="400" font-size="18" x="131.915" y="229">(47.2, 12.3)</tspan><tspan font-family="Lato,Lato_MSFontService,sans-serif" font-weight="400" font-size="18" x="130.673" y="284">(47.1, 12.3)</tspan><tspan font-family="Lato,Lato_MSFontService,sans-serif" font-weight="400" font-size="23" x="273.899" y="69">44</tspan><tspan font-family="Lato,Lato_MSFontService,sans-serif" font-weight="400" font-size="23" x="273.412" y="124">47</tspan><tspan font-family="Lato,Lato_MSFontService,sans-serif" font-weight="400" font-size="23" x="271.495" y="178">35</tspan><tspan font-family="Lato,Lato_MSFontService,sans-serif" font-weight="400" font-size="23" x="265.326" y="233">18.3</tspan><tspan font-family="Lato,Lato_MSFontService,sans-serif" font-weight="400" font-size="23" x="265.326" y="284">19.2</tspan><tspan font-weight="400" font-size="92" x="5.99487" y="363">…</tspan><tspan font-weight="400" font-size="92" x="-1254.47" y="381">…</tspan><tspan font-weight="400" font-size="92" x="-1611.19" y="376">…</tspan><tspan font-weight="400" font-size="83" x="-450.936" y="131">*</tspan><tspan font-weight="400" font-size="83" x="-1013.18" y="110">1</tspan></text></g></svg>